<?xml version="1.0" standalone="no"?>
<!DOCTYPE svg PUBLIC "-//W3C//DTD SVG 20010904//EN"
 "http://www.w3.org/TR/2001/REC-SVG-20010904/DTD/svg10.dtd">
<svg version="1.0" xmlns="http://www.w3.org/2000/svg"
 width="181.000000pt" height="181.000000pt" viewBox="0 0 181.000000 181.000000"
 preserveAspectRatio="xMidYMid meet">
<metadata>
Created by potrace 1.11, written by Peter Selinger 2001-2013
</metadata>
<g transform="translate(0.000000,181.000000) scale(0.100000,-0.100000)"
fill="#000000" stroke="none">
<path d="M160 1381 c-82 -125 -150 -229 -150 -233 0 -3 19 -26 43 -51 51 -53
311 -328 358 -378 30 -32 130 -137 413 -434 l76 -80 88 91 c82 86 311 327 382
404 18 19 92 98 165 175 247 261 265 280 261 291 -4 11 -273 423 -283 434 -3
3 -274 5 -603 6 l-599 1 -151 -226z m639 142 c-20 -25 -188 -201 -222 -232
-16 -14 -32 -24 -35 -21 -6 4 -122 259 -122 267 0 2 88 3 196 3 186 0 196 -1
183 -17z m587 -15 c-7 -18 -35 -81 -60 -139 l-47 -107 -52 56 c-57 61 -64 69
-152 160 l-59 62 192 0 192 0 -14 -32z m-387 -82 c45 -45 105 -107 132 -137
l50 -54 -136 -3 c-75 -1 -194 -1 -265 0 l-129 3 95 100 c52 55 109 117 126
138 18 20 35 37 39 37 3 0 43 -38 88 -84z m571 -66 c44 -66 80 -122 80 -125 0
-3 -61 -5 -136 -5 -75 0 -134 4 -132 9 12 33 103 241 105 241 2 0 39 -54 83
-120z m-1181 -15 l49 -110 -130 -3 c-72 -1 -133 -1 -135 2 -8 7 152 235 159
227 4 -4 30 -56 57 -116z m826 -227 c2 -3 -242 -555 -291 -658 -11 -24 -18
-30 -22 -20 -4 12 -115 260 -212 475 -10 22 -34 76 -54 120 l-35 80 47 5 c50
5 562 4 567 -2z m369 3 l58 -1 -32 -37 c-28 -32 -182 -202 -230 -253 -13 -14
-199 -217 -225 -246 -64 -70 -108 -115 -111 -112 -2 3 60 149 139 325 l142
322 45 3 c25 2 70 2 100 1 30 -1 81 -2 114 -2z m-958 -301 c73 -162 140 -311
149 -330 17 -38 36 -56 -400 395 -117 121 -216 223 -221 228 -4 4 70 6 166 5
l174 -3 132 -295z"/>
</g>
</svg>
