<?xml version="1.0" encoding="utf-8"?>
<!-- Generator: Adobe Illustrator 19.1.0, SVG Export Plug-In . SVG Version: 6.00 Build 0)  -->
<svg version="1.1" id="Layer_1" xmlns="http://www.w3.org/2000/svg" xmlns:xlink="http://www.w3.org/1999/xlink" x="0px" y="0px"
	 viewBox="0 0 1 1" style="enable-background:new 0 0 1 1;" xml:space="preserve">
<g>
	<path d="M0.144,0.59V0.41h0.079v0.034H0.168v0.038h0.054v0.034H0.168v0.041h0.055V0.59H0.144z"/>
	<path d="M0.315,0.59L0.287,0.524L0.258,0.59H0.23l0.041-0.092L0.233,0.41h0.028l0.026,0.062L0.312,0.41h0.029L0.303,0.497
		L0.343,0.59H0.315z"/>
	<path d="M0.354,0.59V0.41h0.052c0.024,0,0.038,0.026,0.038,0.058c0,0.031-0.013,0.058-0.038,0.058H0.377V0.59H0.354z M0.419,0.468
		c0-0.015-0.007-0.024-0.016-0.024H0.377v0.049h0.025C0.412,0.492,0.419,0.483,0.419,0.468z"/>
	<path d="M0.458,0.59V0.41h0.024v0.147h0.047V0.59H0.458z"/>
	<path d="M0.536,0.5c0-0.054,0.025-0.093,0.058-0.093c0.034,0,0.058,0.039,0.058,0.093c0,0.054-0.025,0.093-0.058,0.093
		C0.56,0.593,0.536,0.554,0.536,0.5z M0.628,0.5c0-0.034-0.013-0.059-0.034-0.059C0.573,0.441,0.56,0.466,0.56,0.5
		c0,0.034,0.013,0.059,0.034,0.059C0.615,0.559,0.628,0.534,0.628,0.5z"/>
	<path d="M0.732,0.59L0.71,0.526H0.693V0.59H0.669V0.41h0.052c0.023,0,0.038,0.025,0.038,0.058c0,0.032-0.012,0.049-0.024,0.054
		L0.76,0.59H0.732z M0.735,0.468c0-0.015-0.007-0.024-0.017-0.024H0.693v0.049h0.025C0.727,0.492,0.735,0.483,0.735,0.468z"/>
	<path d="M0.777,0.59V0.41h0.079v0.034H0.801v0.038h0.054v0.034H0.801v0.041h0.055V0.59H0.777z"/>
</g>
</svg>
